<svg version="1.1" id="Layer_1" xmlns="http://www.w3.org/2000/svg" xmlns:xlink="http://www.w3.org/1999/xlink" x="0px" y="0px"
	 width="100%" viewBox="0 0 800 600" enable-background="new 0 0 800 600" xml:space="preserve">
<path fill="#951A1D" opacity="1.000000" stroke="none" 
	d="
M512.000000,601.000000 
	C341.333344,601.000000 171.166672,601.000000 1.000000,601.000000 
	C1.000000,401.000000 1.000000,201.000000 1.000000,1.000000 
	C267.666656,1.000000 534.333313,1.000000 801.000000,1.000000 
	C801.000000,201.000000 801.000000,401.000000 801.000000,601.000000 
	C704.833313,601.000000 608.666687,601.000000 512.000000,601.000000 
M469.782867,346.292114 
	C472.441772,342.686798 475.672455,339.370880 477.667419,335.429504 
	C491.324371,308.448486 491.559143,280.504547 481.409607,252.639999 
	C474.935089,234.864746 461.489410,224.034760 442.584503,220.306702 
	C415.025482,214.872070 393.120941,225.042053 381.327911,250.526062 
	C368.716919,277.777649 369.333496,305.702606 382.207642,332.625885 
	C398.366150,366.417511 442.690033,373.269501 469.782867,346.292114 
M209.192810,327.499969 
	C209.192856,334.161713 209.097595,340.825104 209.212708,347.484863 
	C209.455826,361.551605 206.853729,359.874207 221.579575,359.971191 
	C228.167892,360.014587 228.209564,359.885437 228.210815,353.258484 
	C228.213821,337.436859 228.153244,321.614349 228.335556,305.794708 
	C228.356903,303.942444 229.663330,300.555450 230.504791,300.513641 
	C235.951675,300.243164 241.594925,300.014221 246.834839,301.231171 
	C249.252274,301.792633 251.219513,305.450531 252.852219,308.043610 
	C262.964203,324.103577 272.891663,340.279663 282.986603,356.350494 
	C283.885406,357.781342 285.485077,359.666809 286.856995,359.751160 
	C292.904785,360.122925 298.988403,359.911774 306.013153,359.911774 
	C304.771332,357.254120 304.183563,355.549988 303.248932,354.064056 
	C292.436371,336.873047 281.590363,319.702911 270.709137,302.555237 
	C267.264343,297.126648 267.227966,297.070679 272.848145,294.138977 
	C287.680786,286.401703 295.437897,271.519775 293.629395,254.270432 
	C291.864960,237.441452 282.555206,226.930817 265.130798,222.489304 
	C261.122925,221.467712 256.924530,220.709595 252.808838,220.685791 
	C240.496704,220.614594 228.180756,220.906433 215.869034,221.179291 
	C209.232605,221.326370 209.203217,221.439590 209.200668,228.071915 
	C209.188049,260.881256 209.193695,293.690613 209.192810,327.499969 
M590.461792,262.500244 
	C590.462097,252.673035 590.382385,242.845001 590.481628,233.018784 
	C590.627319,218.595306 589.783508,221.618927 578.877808,221.467636 
	C571.797424,221.369400 571.407227,221.829544 571.406311,229.206924 
	C571.401733,268.515808 571.393494,307.824707 571.409607,347.133575 
	C571.415894,362.430115 570.052246,359.579254 583.999390,360.069214 
	C588.692993,360.234131 590.436646,358.911316 590.412170,353.940521 
	C590.263672,323.794586 590.411987,293.647186 590.461792,262.500244 
z"/>
<path fill="#070101" opacity="1.000000" stroke="none" 
	d="
M469.538330,346.544708 
	C442.690033,373.269501 398.366150,366.417511 382.207642,332.625885 
	C369.333496,305.702606 368.716919,277.777649 381.327911,250.526062 
	C393.120941,225.042053 415.025482,214.872070 442.584503,220.306702 
	C461.489410,224.034760 474.935089,234.864746 481.409607,252.639999 
	C491.559143,280.504547 491.324371,308.448486 477.667419,335.429504 
	C475.672455,339.370880 472.441772,342.686798 469.538330,346.544708 
M410.208344,241.574951 
	C406.819885,245.621201 402.355927,249.171875 400.224579,253.797409 
	C389.629486,276.791199 390.210510,300.258789 399.220398,323.597626 
	C402.205994,331.331329 407.130737,337.834839 414.653107,341.963501 
	C426.545532,348.490723 449.739319,346.227692 459.397461,328.401886 
	C470.704468,307.532806 470.487213,285.373016 464.726166,263.342926 
	C458.273590,238.668564 433.239594,228.872055 410.208344,241.574951 
z"/>
<path fill="#070101" opacity="1.000000" stroke="none" 
	d="
M209.192871,326.999939 
	C209.193695,293.690613 209.188049,260.881256 209.200668,228.071915 
	C209.203217,221.439590 209.232605,221.326370 215.869034,221.179291 
	C228.180756,220.906433 240.496704,220.614594 252.808838,220.685791 
	C256.924530,220.709595 261.122925,221.467712 265.130798,222.489304 
	C282.555206,226.930817 291.864960,237.441452 293.629395,254.270432 
	C295.437897,271.519775 287.680786,286.401703 272.848145,294.138977 
	C267.227966,297.070679 267.264343,297.126648 270.709137,302.555237 
	C281.590363,319.702911 292.436371,336.873047 303.248932,354.064056 
	C304.183563,355.549988 304.771332,357.254120 306.013153,359.911774 
	C298.988403,359.911774 292.904785,360.122925 286.856995,359.751160 
	C285.485077,359.666809 283.885406,357.781342 282.986603,356.350494 
	C272.891663,340.279663 262.964203,324.103577 252.852219,308.043610 
	C251.219513,305.450531 249.252274,301.792633 246.834839,301.231171 
	C241.594925,300.014221 235.951675,300.243164 230.504791,300.513641 
	C229.663330,300.555450 228.356903,303.942444 228.335556,305.794708 
	C228.153244,321.614349 228.213821,337.436859 228.210815,353.258484 
	C228.209564,359.885437 228.167892,360.014587 221.579575,359.971191 
	C206.853729,359.874207 209.455826,361.551605 209.212708,347.484863 
	C209.097595,340.825104 209.192856,334.161713 209.192871,326.999939 
M273.384979,254.400543 
	C272.218414,247.698654 268.104218,243.454758 261.982605,241.035873 
	C252.440063,237.265244 242.467285,237.530716 232.485092,238.188019 
	C229.482635,238.385727 228.130539,240.157913 228.150528,243.166748 
	C228.231094,255.295517 228.284470,267.424652 228.286133,279.553650 
	C228.286530,282.439972 229.609207,284.037048 232.444229,283.940887 
	C240.715408,283.660339 249.082748,283.899719 257.219757,282.665436 
	C264.557739,281.552338 270.820862,277.497253 272.538208,269.533112 
	C273.535522,264.908142 273.256500,260.007935 273.384979,254.400543 
z"/>
<path fill="#080102" opacity="1.000000" stroke="none" 
	d="
M590.461426,263.000244 
	C590.411987,293.647186 590.263672,323.794586 590.412170,353.940521 
	C590.436646,358.911316 588.692993,360.234131 583.999390,360.069214 
	C570.052246,359.579254 571.415894,362.430115 571.409607,347.133575 
	C571.393494,307.824707 571.401733,268.515808 571.406311,229.206924 
	C571.407227,221.829544 571.797424,221.369400 578.877808,221.467636 
	C589.783508,221.618927 590.627319,218.595306 590.481628,233.018784 
	C590.382385,242.845001 590.462097,252.673035 590.461426,263.000244 
z"/>
<path fill="#931A1E" opacity="1.000000" stroke="none" 
	d="
M410.516479,241.379349 
	C433.239594,228.872055 458.273590,238.668564 464.726166,263.342926 
	C470.487213,285.373016 470.704468,307.532806 459.397461,328.401886 
	C449.739319,346.227692 426.545532,348.490723 414.653107,341.963501 
	C407.130737,337.834839 402.205994,331.331329 399.220398,323.597626 
	C390.210510,300.258789 389.629486,276.791199 400.224579,253.797409 
	C402.355927,249.171875 406.819885,245.621201 410.516479,241.379349 
z"/>
<path fill="#911B1F" opacity="1.000000" stroke="none" 
	d="
M273.468384,254.816071 
	C273.256500,260.007935 273.535522,264.908142 272.538208,269.533112 
	C270.820862,277.497253 264.557739,281.552338 257.219757,282.665436 
	C249.082748,283.899719 240.715408,283.660339 232.444229,283.940887 
	C229.609207,284.037048 228.286530,282.439972 228.286133,279.553650 
	C228.284470,267.424652 228.231094,255.295517 228.150528,243.166748 
	C228.130539,240.157913 229.482635,238.385727 232.485092,238.188019 
	C242.467285,237.530716 252.440063,237.265244 261.982605,241.035873 
	C268.104218,243.454758 272.218414,247.698654 273.468384,254.816071 
z"/>
</svg>